# xmcd
#
# Track frame offsets: 
#        150
#        21199
#        47272
#        75088
#        95363
#        117696
#        139603
#        163231
#        191465
#        212153
#        228663
#        254819
#        277166
#        296523
#
# Disc length: 4265 seconds
#
# Revision: 0
# Processed by: cddbd v1.5.2PL0 Copyright (c) Steve Scherf et al.
# Submitted via: ExactAudioCopyFreeDBPlugin 1.0
#
DISCID=cb10a70e
DTITLE=Kal David - Crossroads Of My Life
DYEAR=2013
DGENRE=Blues
TTITLE0=Say Yeah
TTITLE1=The Visit
TTITLE2=Free
TTITLE3=Heart Of Stone
TTITLE4=Nothing New
TTITLE5=Free Ride
TTITLE6=I Idolize You
TTITLE7=Heartache
TTITLE8=Live It Out To The End
TTITLE9=Crossroads Of My Life
TTITLE10=Honky Tonk
TTITLE11=You Can`t Judge A Book By The Cover
TTITLE12=After The Sun Goes Down
TTITLE13=While My Guitar Gently Weeps
EXTD=
EXTT0=
EXTT1=
EXTT2=
EXTT3=
EXTT4=
EXTT5=
EXTT6=
EXTT7=
EXTT8=
EXTT9=
EXTT10=
EXTT11=
EXTT12=
EXTT13=
PLAYORDER=
